<?xml version="1.0" standalone="no"?>
<!DOCTYPE svg PUBLIC "-//W3C//DTD SVG 20010904//EN"
 "http://www.w3.org/TR/2001/REC-SVG-20010904/DTD/svg10.dtd">
<svg version="1.0" xmlns="http://www.w3.org/2000/svg"
 width="225.000000pt" height="225.000000pt" viewBox="0 0 225.000000 225.000000"
 preserveAspectRatio="xMidYMid meet">
<metadata>
Created by potrace 1.11, written by Peter Selinger 2001-2013
</metadata>
<g transform="translate(0.000000,225.000000) scale(0.100000,-0.100000)"
fill="#000000" stroke="none">
<path d="M0 1125 l0 -1125 1125 0 1125 0 0 1125 0 1125 -1125 0 -1125 0 0
-1125z m1305 485 c118 -45 215 -129 274 -238 13 -24 21 -45 18 -48 -2 -3 4
-32 14 -65 21 -68 25 -196 8 -269 -29 -126 -137 -265 -255 -327 -120 -64 -269
-78 -396 -39 -29 9 -48 11 -48 5 0 -6 -27 4 -60 22 -64 34 -162 130 -193 190
-17 32 -17 33 0 9 10 -14 40 -47 66 -75 l49 -50 -51 64 c-69 88 -102 174 -109
284 -4 77 -6 85 -19 70 -12 -16 -13 -13 -8 27 30 218 185 395 398 455 77 22
235 14 312 -15z"/>
<path d="M1050 1599 c-116 -17 -204 -64 -288 -153 -180 -190 -175 -494 11
-677 33 -33 65 -58 71 -56 15 6 48 -12 41 -22 -2 -5 1 -8 8 -8 6 1 45 -9 86
-22 62 -20 87 -23 170 -19 87 4 106 9 175 42 72 35 134 85 193 158 l22 27
-202 114 c-188 106 -202 113 -208 93 l-6 -21 -4 21 c-4 20 -13 17 -133 -53
-201 -115 -277 -155 -283 -149 -4 3 -4 7 -2 9 2 2 45 34 94 72 241 183 254
195 260 228 2 18 14 104 25 192 24 191 29 215 41 215 5 0 9 -98 9 -235 l0
-235 35 17 c34 16 35 16 72 -14 95 -75 302 -233 306 -233 10 0 46 126 53 185
5 44 9 55 15 40 16 -42 9 61 -9 126 -51 185 -213 330 -402 359 -72 11 -72 11
-150 -1z m275 -57 c-3 -3 -11 0 -18 7 -9 10 -8 11 6 5 10 -3 15 -9 12 -12z
m97 -54 c20 -16 52 -48 69 -71 27 -35 24 -33 -22 14 -30 30 -67 66 -84 78 -16
12 -23 19 -15 15 8 -4 32 -20 52 -36z"/>
</g>
</svg>
